<?xml version="1.0" encoding="UTF-8"?>
<svg width="44px" height="44px" viewBox="0 0 44 44" version="1.1" xmlns="http://www.w3.org/2000/svg" xmlns:xlink="http://www.w3.org/1999/xlink">
    <!-- Generator: Sketch 55.2 (78181) - https://sketchapp.com -->
    <title>banqiuwhite</title>
    <desc>Created with Sketch.</desc>
    <g id="页面1" stroke="none" stroke-width="1" fill="none" fill-rule="evenodd">
        <g id="切图" transform="translate(-126.000000, -271.000000)" fill="#FFFFFF" fill-rule="nonzero">
            <g id="半球" transform="translate(126.000000, 271.000000)">
                <g id="banqiuwhite">
                    <circle id="Oval" opacity="0.200000003" cx="22" cy="22" r="22"></circle>
                    <path d="M33.1917949,10.1538462 L10.8082051,10.1538462 C9.51212308,10.1538462 8.46153846,11.2044308 8.46153846,12.5005128 L8.46153846,16.8328205 C8.46153846,17.9556103 9.26662564,18.8491487 10.3190154,19.0802051 C10.2937436,19.4123487 10.2666667,19.7426872 10.2666667,20.0820513 L10.2666667,25.4974359 C10.2666667,31.9507692 15.5466667,37.2307692 22,37.2307692 C28.4533333,37.2307692 33.7333333,31.9507692 33.7333333,25.4974359 L33.7333333,20.0820513 C33.7333333,19.7444923 33.6972308,19.4141538 33.6647385,19.0838154 C34.7261538,18.8581744 35.5384615,17.9610256 35.5384615,16.8328205 L35.5384615,12.5005128 C35.5384615,11.2044308 34.4878769,10.1538462 33.1917949,10.1538462 Z M31.9282051,25.4974359 C31.9282051,30.9723897 27.4749538,35.425641 22,35.425641 C16.5250462,35.425641 12.0717949,30.9723897 12.0717949,25.4974359 L12.0717949,20.0820513 C12.0717949,19.7860103 12.059159,19.4845538 12.0898462,19.1794872 L31.9065436,19.1794872 C31.9354256,19.4845538 31.9282051,19.7860103 31.9282051,20.0820513 L31.9282051,25.4974359 Z M33.7333333,16.8328205 C33.7333333,17.1306667 33.489641,17.374359 33.1917949,17.374359 L10.8082051,17.374359 C10.510359,17.374359 10.2666667,17.1306667 10.2666667,16.8328205 L10.2666667,12.5005128 C10.2666667,12.2026667 10.510359,11.9589744 10.8082051,11.9589744 L33.1917949,11.9589744 C33.489641,11.9589744 33.7333333,12.2026667 33.7333333,12.5005128 L33.7333333,16.8328205 Z M21.9711179,22.7897436 C19.4782359,22.7897436 17.4582974,24.8096821 17.4582974,27.3025641 C17.4582974,29.7954462 19.4782359,31.8153846 21.9711179,31.8153846 C24.464,31.8153846 26.4839385,29.7954462 26.4839385,27.3025641 C26.4839385,24.8096821 24.464,22.7897436 21.9711179,22.7897436 Z M21.9711179,30.0102564 C20.4782769,30.0102564 19.2634256,28.7954051 19.2634256,27.3025641 C19.2634256,25.8097231 20.4782769,24.5948718 21.9711179,24.5948718 C23.463959,24.5948718 24.6788103,25.8097231 24.6788103,27.3025641 C24.6788103,28.7954051 23.4657641,30.0102564 21.9711179,30.0102564 Z M12.0717949,13.7641026 L13.8769231,13.7641026 L13.8769231,15.5692308 L12.0717949,15.5692308 L12.0717949,13.7641026 Z" id="Shape"></path>
                </g>
            </g>
        </g>
    </g>
</svg>