<?xml version="1.0" encoding="UTF-8"?>
<svg width="28px" height="28px" viewBox="0 0 28 28" version="1.1" xmlns="http://www.w3.org/2000/svg" xmlns:xlink="http://www.w3.org/1999/xlink">
    <!-- Generator: Sketch 55.2 (78181) - https://sketchapp.com -->
    <title>icon_xuanzhuan</title>
    <desc>Created with Sketch.</desc>
    <defs>
        <circle id="path-1" cx="14" cy="14" r="10"></circle>
        <filter x="-30.0%" y="-30.0%" width="160.0%" height="160.0%" filterUnits="objectBoundingBox" id="filter-2">
            <feOffset dx="0" dy="0" in="SourceAlpha" result="shadowOffsetOuter1"></feOffset>
            <feGaussianBlur stdDeviation="2" in="shadowOffsetOuter1" result="shadowBlurOuter1"></feGaussianBlur>
            <feColorMatrix values="0 0 0 0 0   0 0 0 0 0   0 0 0 0 0  0 0 0 0.5 0" type="matrix" in="shadowBlurOuter1"></feColorMatrix>
        </filter>
    </defs>
    <g id="页面1" stroke="none" stroke-width="1" fill="none" fill-rule="evenodd">
        <g id="切图" transform="translate(-834.000000, -284.000000)">
            <g id="icon_xuanzhuan" transform="translate(834.000000, 284.000000)">
                <g id="椭圆形备份-4">
                    <use fill="black" fill-opacity="1" filter="url(#filter-2)" xlink:href="#path-1"></use>
                    <use fill="#FFFFFF" fill-rule="evenodd" xlink:href="#path-1"></use>
                </g>
                <g id="围绕相机旋转" transform="translate(7.000000, 7.000000)" fill-rule="nonzero">
                    <rect id="矩形" fill="#000000" opacity="0" x="0" y="0" width="14" height="14"></rect>
                    <path d="M12.7011719,11.6074219 C12.4746488,11.6074219 12.2910156,11.4237887 12.2910156,11.1972656 L12.2910156,10.060627 C12.0240343,10.5212472 11.6980734,10.9450502 11.3213926,11.3212969 C9.88387695,12.7589355 7.90838672,13.3301875 6.04296875,13.0358867 C4.79995651,12.8405286 3.64811516,12.2645052 2.74614648,11.3871816 C2.62745177,11.2974725 2.56664492,11.1505206 2.58724803,11.0031717 C2.60785114,10.8558229 2.70663308,10.7311855 2.84538172,10.6774735 C2.98413037,10.6237614 3.14108607,10.6493983 3.2555332,10.7444668 L3.25869141,10.7413086 C4.01613951,11.5010545 4.98756555,12.0113334 6.04296875,12.2038574 L6.04296875,12.2037754 C7.6952832,12.5062383 9.46375391,12.0189453 10.7413906,10.7412266 C11.1297761,10.3535232 11.4554219,9.90770679 11.706625,9.41979883 L10.5137949,9.41979883 C10.2872719,9.41979883 10.1036387,9.23616562 10.1036387,9.00964258 C10.1036387,8.78311954 10.2872719,8.59948633 10.5137949,8.59948633 L12.7011719,8.59948633 C12.9276949,8.59948633 13.1113281,8.78311954 13.1113281,9.00964258 L13.1113281,11.1972656 C13.1113281,11.4237887 12.9276949,11.6074219 12.7011719,11.6074219 Z M11.0059277,3.34926758 C10.910488,3.34940893 10.8180131,3.31611853 10.7445625,3.25517773 L10.7413906,3.25833594 C10.355409,2.87181063 9.91182844,2.54747079 9.42645703,2.296875 L9.42630664,2.296875 C7.43505273,1.26899609 4.92797266,1.58939648 3.25869141,3.25869141 C2.87030411,3.64637778 2.54465786,4.09218104 2.29345703,4.58007812 L3.48632812,4.58007812 C3.71285117,4.58007812 3.89648438,4.76371133 3.89648438,4.99023437 C3.89648438,5.21675742 3.71285117,5.40039062 3.48632812,5.40039062 L1.29882812,5.40039062 C1.07230508,5.40039062 0.888671875,5.21675742 0.888671875,4.99023437 L0.888671875,2.80273438 C0.888671875,2.57621133 1.07230508,2.39257812 1.29882813,2.39257812 C1.52535117,2.39257812 1.70898438,2.57621133 1.70898438,2.80273438 L1.70898438,3.93926367 C1.97597969,3.47865795 2.30194949,3.05486918 2.67863477,2.67863477 C4.34739648,1.00988672 6.74089062,0.50859375 8.84570312,1.17353906 L8.84570312,1.17292383 C9.74965107,1.45853826 10.5743238,1.95149349 11.2539082,2.61244922 C11.39415,2.71893388 11.4507744,2.90305188 11.3946069,3.06994098 C11.3384394,3.23683007 11.1820151,3.34924533 11.0059277,3.34926758 Z" id="形状" fill="#333333"></path>
                </g>
            </g>
        </g>
    </g>
</svg>