<?xml version="1.0" encoding="UTF-8"?>
<svg width="44px" height="40px" viewBox="0 0 44 40" version="1.1" xmlns="http://www.w3.org/2000/svg" xmlns:xlink="http://www.w3.org/1999/xlink">
    <!-- Generator: Sketch 55.2 (78181) - https://sketchapp.com -->
    <title>icon_up</title>
    <desc>Created with Sketch.</desc>
    <g id="页面1" stroke="none" stroke-width="1" fill="none" fill-rule="evenodd">
        <g id="切图" transform="translate(-153.000000, -407.000000)" fill-rule="nonzero">
            <g id="图标上传" transform="translate(153.000000, 405.000000)">
                <g id="icon_up">
                    <rect id="矩形" fill="#000000" opacity="0" x="0" y="0" width="44" height="44"></rect>
                    <path d="M34.1656563,10.580625 C32.0392187,5.57528125 27.1400938,2.26634375 21.7349688,2.26634375 C14.359125,2.26634375 8.34590625,8.27475 8.22628125,15.6633125 C3.5880625,16.3050938 0,20.4070625 0,25.35775 C0,30.7522187 4.30478125,35.1412188 9.59646875,35.1412188 L12.904375,35.1412188 C13.2502598,35.1415629 13.5820567,35.0042117 13.8266342,34.7596342 C14.0712117,34.5150567 14.2084926,34.1832598 14.2082188,33.837375 C14.2084926,33.4914902 14.0712117,33.1596933 13.8266342,32.9151158 C13.5820567,32.6705383 13.2502598,32.5332574 12.904375,32.5335313 L9.59646875,32.5335313 C5.74234375,32.5335313 2.6076875,29.315 2.6076875,25.35775 C2.6076875,21.3355313 5.63303125,18.184375 9.49609375,18.184375 C10.1985569,18.1840469 10.7744866,17.6272693 10.7985625,16.9252188 L10.8315625,15.9345312 C10.8315625,9.83571875 15.723125,4.87403125 21.7353125,4.87403125 C26.3075313,4.87403125 30.43425,7.8203125 32.0038125,12.2065625 C32.1730903,12.680155 32.5996616,13.014162 33.1000312,13.0649062 C37.8272812,13.542375 41.3923125,17.7185937 41.3923125,22.7772187 C41.3923125,28.1562187 37.2772812,32.533875 32.2200312,32.533875 L30.855,32.533875 C30.5091152,32.5336011 30.1773183,32.670882 29.9327408,32.9154595 C29.6881633,33.1600371 29.5508824,33.491834 29.5511562,33.8377187 C29.5508824,34.1836035 29.6881633,34.5154004 29.9327408,34.759978 C30.1773183,35.0045555 30.5091152,35.1415629 30.855,35.1415629 L32.2200313,35.1415629 C38.715875,35.1415629 44,29.5951562 44,22.7772187 C44,16.6601875 39.8261875,11.55825 34.1656563,10.580625 Z" id="路径" fill="#999999"></path>
                    <path d="M23.4465,24.7297187 C23.3251051,24.6080156 23.1805072,24.5119287 23.0212812,24.4471562 C22.7027121,24.3144687 22.3443504,24.3144687 22.0257812,24.4471562 C21.8665334,24.5118872 21.7219276,24.6079793 21.6005625,24.7297187 L16.8956562,29.431875 C16.5663411,29.7612515 16.4377616,30.2412956 16.5583525,30.6911791 C16.6789434,31.1410627 17.030384,31.4924378 17.48029,31.6129448 C17.9301961,31.7334518 18.4102161,31.6047828 18.7395312,31.2754062 L21.2196875,28.7962812 L21.2196875,40.4298125 C21.2196875,41.1506562 21.8026875,41.7336562 22.5235312,41.7336562 C23.244375,41.7336562 23.827375,41.1506562 23.827375,40.4298125 L23.827375,28.7976562 L26.305125,31.2754062 C26.5494795,31.5199551 26.8810119,31.6573575 27.2267187,31.6573575 C27.5724256,31.6573575 27.903958,31.5199551 28.1483125,31.2754062 C28.3929666,31.0310379 28.5304358,30.6994318 28.5304358,30.3536406 C28.5304358,30.0078495 28.3929666,29.6762434 28.1483125,29.431875 L23.4465,24.7297187 Z" id="路径" fill="#999999"></path>
                </g>
            </g>
        </g>
    </g>
</svg>