<?xml version="1.0" encoding="UTF-8"?>
<svg width="16px" height="16px" viewBox="0 0 16 16" version="1.1" xmlns="http://www.w3.org/2000/svg" xmlns:xlink="http://www.w3.org/1999/xlink">
    <!-- Generator: Sketch 55.2 (78181) - https://sketchapp.com -->
    <title>icon_camera_n</title>
    <desc>Created with Sketch.</desc>
    <g id="页面1" stroke="none" stroke-width="1" fill="none" fill-rule="evenodd">
        <g id="切图" transform="translate(-824.000000, -252.000000)">
            <g id="icon_camera_n" transform="translate(824.000000, 252.000000)">
                <path d="M14.6133333,0 L1.38666667,0 C0.6208,0 0,0.6208 0,1.38666667 L0,3.94666667 C0,4.61013333 0.475733333,5.13813333 1.0976,5.27466667 C1.08266667,5.47093333 1.06666667,5.66613333 1.06666667,5.86666667 L1.06666667,9.06666667 C1.06666667,12.88 4.18666667,16 8,16 C11.8133333,16 14.9333333,12.88 14.9333333,9.06666667 L14.9333333,5.86666667 C14.9333333,5.6672 14.912,5.472 14.8928,5.2768 C15.52,5.14346667 16,4.61333333 16,3.94666667 L16,1.38666667 C16,0.6208 15.3792,0 14.6133333,0 Z M13.8666667,9.06666667 C13.8666667,12.3018667 11.2352,14.9333333 8,14.9333333 C4.7648,14.9333333 2.13333333,12.3018667 2.13333333,9.06666667 L2.13333333,5.86666667 C2.13333333,5.69173333 2.12586667,5.5136 2.144,5.33333333 L13.8538667,5.33333333 C13.8709333,5.5136 13.8666667,5.69173333 13.8666667,5.86666667 L13.8666667,9.06666667 Z M14.9333333,3.94666667 C14.9333333,4.12266667 14.7893333,4.26666667 14.6133333,4.26666667 L1.38666667,4.26666667 C1.21066667,4.26666667 1.06666667,4.12266667 1.06666667,3.94666667 L1.06666667,1.38666667 C1.06666667,1.21066667 1.21066667,1.06666667 1.38666667,1.06666667 L14.6133333,1.06666667 C14.7893333,1.06666667 14.9333333,1.21066667 14.9333333,1.38666667 L14.9333333,3.94666667 Z" id="Shape" fill="#666666" fill-rule="nonzero"></path>
                <path d="M13.8666667,9.06666667 C13.8666667,12.3018667 11.2352,14.9333333 8,14.9333333 C4.7648,14.9333333 2.13333333,12.3018667 2.13333333,9.06666667 L2.13333333,5.86666667 C2.13333333,5.69173333 2.12586667,5.5136 2.144,5.33333333 L13.8538667,5.33333333 C13.8709333,5.5136 13.8666667,5.69173333 13.8666667,5.86666667 L13.8666667,9.06666667 Z" id="Path" fill="#D8D8D8"></path>
                <path d="M7.98293333,7.46666667 C9.456,7.46666667 10.6496,8.66026667 10.6496,10.1333333 C10.6496,11.6064 9.456,12.8 7.98293333,12.8 C6.50986667,12.8 5.31626667,11.6064 5.31626667,10.1333333 C5.31626667,8.66026667 6.50986667,7.46666667 7.98293333,7.46666667 Z M7.98293333,11.7333333 C8.86613333,11.7333333 9.58293333,11.0154667 9.58293333,10.1333333 C9.58293333,9.2512 8.86506667,8.53333333 7.98293333,8.53333333 C7.1008,8.53333333 6.38293333,9.2512 6.38293333,10.1333333 C6.38293333,11.0154667 7.1008,11.7333333 7.98293333,11.7333333 Z" id="形状结合" fill="#666666" fill-rule="nonzero"></path>
                <path d="M14.9333333,3.94666667 C14.9333333,4.12266667 14.7893333,4.26666667 14.6133333,4.26666667 L1.38666667,4.26666667 C1.21066667,4.26666667 1.06666667,4.12266667 1.06666667,3.94666667 L1.06666667,1.38666667 C1.06666667,1.21066667 1.21066667,1.06666667 1.38666667,1.06666667 L14.6133333,1.06666667 C14.7893333,1.06666667 14.9333333,1.21066667 14.9333333,1.38666667 L14.9333333,3.94666667 Z" id="Path" fill="#D8D8D8"></path>
                <path d="M7.98293333,11.7333333 C7.1008,11.7333333 6.38293333,11.0154667 6.38293333,10.1333333 C6.38293333,9.2512 7.1008,8.53333333 7.98293333,8.53333333 C8.86506667,8.53333333 9.58293333,9.2512 9.58293333,10.1333333 C9.58293333,11.0154667 8.86613333,11.7333333 7.98293333,11.7333333 Z" id="Path" fill="#D8D8D8" fill-rule="nonzero"></path>
                <polygon id="Path" fill="#666666" fill-rule="nonzero" points="2.13333333 2.13333333 3.2 2.13333333 3.2 3.2 2.13333333 3.2"></polygon>
            </g>
        </g>
    </g>
</svg>