<?xml version="1.0" encoding="UTF-8"?>
<svg width="44px" height="44px" viewBox="0 0 44 44" version="1.1" xmlns="http://www.w3.org/2000/svg" xmlns:xlink="http://www.w3.org/1999/xlink">
    <!-- Generator: Sketch 55.2 (78181) - https://sketchapp.com -->
    <title>icon_grid</title>
    <desc>Created with Sketch.</desc>
    <g id="页面1" stroke="none" stroke-width="1" fill="none" fill-rule="evenodd">
        <g id="切图" transform="translate(-169.000000, -71.000000)">
            <g id="icon_grid" transform="translate(169.000000, 71.000000)">
                <rect id="矩形" fill="#353535" x="0" y="0" width="44" height="44" rx="2"></rect>
                <g transform="translate(8.000000, 8.000000)" fill-rule="nonzero" id="形状">
                    <path d="M1.47159091,9.22727273 L26.5284091,9.22727273 L26.5284091,10.2272727 L1.47159091,10.2272727 L1.47159091,9.22727273 Z M1.47159091,18.0710227 L26.5284091,18.0710227 L26.5284091,19.0710227 L1.47159091,19.0710227 L1.47159091,18.0710227 Z" fill="#1890FF"></path>
                    <path d="M9.86789773,1.47159091 L10.8678977,1.47159091 L10.8678977,26.5284091 L9.86789773,26.5284091 L9.86789773,1.47159091 Z M17.921875,1.47159091 L18.921875,1.47159091 L18.921875,26.5284091 L17.921875,26.5284091 L17.921875,1.47159091 Z" fill="#1890FF"></path>
                    <path d="M24.2315341,27.4232955 L3.76846591,27.4232955 C1.97869318,27.4232955 0.576704545,26.0213068 0.576704545,24.2315341 L0.576704545,3.76846591 C0.576704545,1.97869318 1.97869318,0.576704545 3.76846591,0.576704545 L24.2315341,0.576704545 C26.0213068,0.576704545 27.4232955,1.97869318 27.4232955,3.76846591 L27.4232955,24.2315341 C27.4232955,26.0213068 26.0213068,27.4232955 24.2315341,27.4232955 Z M3.76846591,2.36647727 C2.99289773,2.36647727 2.36647727,2.99289773 2.36647727,3.76846591 L2.36647727,24.2315341 C2.36647727,25.0071023 2.99289773,25.6335227 3.76846591,25.6335227 L24.2315341,25.6335227 C25.0071023,25.6335227 25.6335227,25.0071023 25.6335227,24.2315341 L25.6335227,3.76846591 C25.6335227,2.99289773 25.0071023,2.36647727 24.2315341,2.36647727 L3.76846591,2.36647727 Z" fill="#FFFFFF"></path>
                </g>
            </g>
        </g>
    </g>
</svg>