<?xml version="1.0" encoding="UTF-8"?>
<svg width="44px" height="44px" viewBox="0 0 44 44" version="1.1" xmlns="http://www.w3.org/2000/svg" xmlns:xlink="http://www.w3.org/1999/xlink">
    <!-- Generator: Sketch 55.2 (78181) - https://sketchapp.com -->
    <title>icon_save</title>
    <desc>Created with Sketch.</desc>
    <g id="页面1" stroke="none" stroke-width="1" fill="none" fill-rule="evenodd">
        <g id="切图" transform="translate(-301.000000, -71.000000)">
            <g id="icon_save" transform="translate(301.000000, 71.000000)">
                <rect id="矩形" fill="#353535" x="0" y="0" width="44" height="44" rx="2"></rect>
                <g id="保存" transform="translate(8.000000, 8.000000)" fill-rule="nonzero">
                    <rect id="矩形" fill="#000000" opacity="0" x="0" y="0" width="28" height="28"></rect>
                    <path d="M26.1347734,0.669921875 L1.85155469,0.669921875 C1.18762109,0.669921875 0.649414062,1.20812891 0.649414062,1.8720625 L0.649414062,26.1552813 C0.649414062,26.8192148 1.18762109,27.3574219 1.85155469,27.3574219 L26.1347734,27.3574219 C26.798707,27.3574219 27.3369141,26.8192148 27.3369141,26.1552813 L27.3369141,1.8720625 C27.3369141,1.20812891 26.798707,0.669921875 26.1347734,0.669921875 Z M5.69841016,2.51127734 C5.69841016,2.436875 5.70393359,2.36394922 5.71413281,2.29280078 L22.2722227,2.29280078 C22.2824219,2.36394922 22.2879453,2.436875 22.2879453,2.51127734 L22.2879453,11.7399297 C22.2879453,12.4894766 21.7497383,13.097082 21.0858047,13.097082 L6.90055078,13.097082 C6.23661719,13.097082 5.69841016,12.4894766 5.69841016,11.7399297 L5.69841016,2.51127734 Z M25.7140352,24.6786094 C25.7140352,25.2617969 25.2412891,25.734543 24.6581016,25.734543 L3.32822656,25.734543 C2.74503906,25.734543 2.27229297,25.2617969 2.27229297,24.6786094 L2.27229297,3.34873437 C2.27229297,2.76554687 2.74503906,2.29280078 3.32822656,2.29280078 L4.07550391,2.29280078 L4.07550391,13.5256133 C4.07550391,14.1852266 4.61291797,14.7199609 5.2758125,14.7199609 L22.7104609,14.7199609 C23.3733828,14.7199609 23.9107695,14.1852266 23.9107695,13.5256133 L23.9107695,2.29280078 L24.6580469,2.29280078 C25.2412344,2.29280078 25.7140352,2.76554688 25.7140352,3.34873438 L25.7140352,24.6786094 L25.7140352,24.6786094 Z" id="形状" fill="#FFFFFF"></path>
                    <path d="M19.7861836,10.7106562 C20.2218516,10.7106562 20.5750508,10.357457 20.5750508,9.92178906 L20.5750508,4.97503125 C20.5750508,4.53936328 20.2218516,4.18616406 19.7861836,4.18616406 C19.3505156,4.18616406 18.9973164,4.53936328 18.9973164,4.97503125 L18.9973164,9.92181641 C18.9973164,10.3574844 19.3505156,10.7106562 19.7861836,10.7106562 Z" id="路径" fill="#1890FF"></path>
                </g>
            </g>
        </g>
    </g>
</svg>