<?xml version="1.0" encoding="UTF-8"?>
<svg width="18px" height="18px" viewBox="0 0 18 18" version="1.1" xmlns="http://www.w3.org/2000/svg" xmlns:xlink="http://www.w3.org/1999/xlink">
    <!-- Generator: Sketch 55.2 (78181) - https://sketchapp.com -->
    <title>icon_delete_n</title>
    <desc>Created with Sketch.</desc>
    <g id="页面1" stroke="none" stroke-width="1" fill="none" fill-rule="evenodd" opacity="0.5">
        <g id="切图" transform="translate(-889.000000, -275.000000)" fill="#333333" fill-rule="nonzero">
            <g id="icon_delete_s备份" transform="translate(889.000000, 275.000000)">
                <path d="M10.8730052,14.0008399 C10.5269612,14.0008399 10.2481102,13.7219889 10.2481102,13.3759449 L10.2481102,6.49874014 C10.2481102,6.15269613 10.5269612,5.87384512 10.8730052,5.87384512 C11.2190492,5.87384512 11.4979002,6.15269611 11.4979002,6.49874014 L11.4979002,13.3725853 C11.4979002,13.7186293 11.2190492,14.0008399 10.8730052,14.0008399 Z M7.12363514,14.0008399 C6.77759113,14.0008399 6.49874012,13.7219889 6.49874012,13.3759449 L6.49874012,6.49874014 C6.49874012,6.15269613 6.77759113,5.87384512 7.12363516,5.87384512 C7.46967916,5.87384512 7.74853018,6.15269611 7.74853018,6.49874014 L7.74853018,13.3725853 C7.74853018,13.7186293 7.46967916,14.0008399 7.12363514,14.0008399 Z M17.125315,3.37426508 L14.0008399,3.37426508 L14.0008399,2.12447506 C14.0008399,1.08970268 13.1676466,0.24979002 12.1395935,0.24979002 L5.87384512,0.24979002 C4.83907273,0.24979002 3.99916008,1.08970268 3.99916008,2.12447506 L3.99916008,3.37426508 L0.87468502,3.37426508 C0.528641016,3.37426508 0.24979,3.65311607 0.24979,3.9991601 C0.24979,4.34520412 0.528640996,4.62405512 0.87468502,4.62405512 L17.125315,4.62405512 C17.471359,4.62405512 17.75021,4.34520412 17.75021,3.9991601 C17.75021,3.65311607 17.471359,3.37426508 17.125315,3.37426508 Z M5.24895012,2.12447506 C5.24895012,1.7817907 5.53116076,1.49958004 5.87384514,1.49958004 L12.1395935,1.49958004 C12.4822779,1.49958004 12.7510499,1.77507139 12.7510499,2.12447506 L12.7510499,3.37426508 L5.24895012,3.37426508 L5.24895012,2.12447506 L5.24895012,2.12447506 Z M13.3759449,17.75021 L4.62741475,17.75021 C3.59264236,17.75021 2.75272971,16.9102973 2.75272971,15.8755249 L2.75272971,6.49202082 C2.75272971,6.14597682 3.0315807,5.8671258 3.37762473,5.8671258 C3.72366875,5.8671258 4.00251975,6.1459768 4.00251975,6.49202082 L4.00251975,15.8755249 C4.00251975,16.2215689 4.28473039,16.50042 4.62741477,16.50042 L13.3793046,16.50042 C13.7253486,16.50042 14.0041996,16.221569 14.0041996,15.8755249 L14.0041996,6.51553838 C14.0041996,6.16949437 14.2830506,5.89064336 14.6290946,5.89064336 C14.9751386,5.89064336 15.2539896,6.16949436 15.2539896,6.51553838 L15.2539896,15.8755249 C15.2506299,16.9069377 14.4107173,17.75021 13.3759449,17.75021 Z" id="形状"></path>
            </g>
        </g>
    </g>
</svg>