<?xml version="1.0" encoding="UTF-8"?>
<svg width="16px" height="18px" viewBox="0 0 16 18" version="1.1" xmlns="http://www.w3.org/2000/svg" xmlns:xlink="http://www.w3.org/1999/xlink">
    <!-- Generator: Sketch 55.2 (78181) - https://sketchapp.com -->
    <title>icon_lock</title>
    <desc>Created with Sketch.</desc>
    <g id="页面1" stroke="none" stroke-width="1" fill="none" fill-rule="evenodd">
        <g id="切图" transform="translate(-949.000000, -253.000000)" fill-rule="nonzero">
            <g id="icon_lock" transform="translate(947.000000, 252.000000)">
                <rect id="矩形" fill="#000000" opacity="0" x="0" y="0" width="20" height="20"></rect>
                <path d="M16.203125,18.7617188 L3.8203125,18.7617188 C3.11914062,18.7617188 2.53515625,18.2949219 2.53515625,17.4765625 L2.53515625,8.48046875 C2.53515625,7.77929687 3.11914062,7.1953125 3.8203125,7.1953125 L16.203125,7.1953125 C16.9042969,7.1953125 17.4882812,7.77929687 17.4882812,8.48046875 L17.4882812,17.4746094 C17.6054687,18.2929688 17.0214844,18.7617188 16.203125,18.7617188 Z M3.8203125,8.36523438 C3.70507812,8.36523438 3.70507812,8.48046875 3.8203125,8.36523438 L3.703125,17.4765625 C3.703125,17.59375 3.703125,17.59375 3.8203125,17.59375 L16.203125,17.59375 C16.3203125,17.59375 16.3203125,17.59375 16.3203125,17.4765625 L16.3203125,8.48046875 C16.3203125,8.36328125 16.3203125,8.36328125 16.203125,8.36328125 L3.8203125,8.36328125 L3.8203125,8.36523438 Z M11.53125,11.5195312 C11.53125,10.7011719 10.7128906,10 10.0117188,10 C9.19335938,10 8.609375,10.8183594 8.609375,11.5195312 C8.609375,12.1035156 8.95898437,12.6875 9.54296875,12.8046875 L9.54296875,14.9082031 C9.54296875,15.1425781 9.66015625,15.2578125 9.89257812,15.2578125 L10.359375,15.2578125 C10.59375,15.2578125 10.7089844,15.140625 10.7089844,14.9082031 L10.7089844,12.8027344 C11.1796875,12.6875 11.53125,12.1035156 11.53125,11.5195312 Z" id="形状" fill="#333333"></path>
                <path d="M14.9179688,7.6640625 L13.75,7.6640625 L13.75,5.91210938 C13.75,3.92578125 12.1152344,2.40820312 10.2460938,2.40820312 C8.25976562,2.40820312 6.7421875,4.04296875 6.7421875,5.91210938 L6.7421875,7.6640625 L5.57421875,7.6640625 L5.57421875,5.91210938 C5.57421875,3.34179688 7.67773438,1.24023438 10.2460938,1.24023438 C12.8144531,1.24023438 14.9179688,3.34375 14.9179688,5.91210938 L14.9179688,7.6640625 Z" id="路径" fill="#333333"></path>
            </g>
        </g>
    </g>
</svg>