<?xml version="1.0" encoding="UTF-8"?>
<svg width="16px" height="16px" viewBox="0 0 16 16" version="1.1" xmlns="http://www.w3.org/2000/svg" xmlns:xlink="http://www.w3.org/1999/xlink">
    <!-- Generator: Sketch 55.2 (78181) - https://sketchapp.com -->
    <title>icon_shape_s</title>
    <desc>Created with Sketch.</desc>
    <g id="页面1" stroke="none" stroke-width="1" fill="none" fill-rule="evenodd">
        <g id="切图" transform="translate(-850.000000, -249.000000)" fill="#FFFFFF">
            <g id="icon_shape_s" transform="translate(850.000000, 249.000000)">
                <path d="M2.15340909,1.35227273 C1.71022727,1.35227273 1.35227273,1.71022727 1.35227273,2.15340909 L1.35227273,13.8465909 C1.35227273,14.2897727 1.71022727,14.6477273 2.15340909,14.6477273 L13.8465909,14.6477273 C14.2897727,14.6477273 14.6477273,14.2897727 14.6477273,13.8465909 L14.6477273,2.15340909 C14.6477273,1.71022727 14.2897727,1.35227273 13.8465909,1.35227273 L2.15340909,1.35227273 Z" id="路径" opacity="0.300000012"></path>
                <path d="M13.8465909,15.6704545 L2.15340909,15.6704545 C1.13068182,15.6704545 0.329545455,14.8693182 0.329545455,13.8465909 L0.329545455,2.15340909 C0.329545455,1.13068182 1.13068182,0.329545455 2.15340909,0.329545455 L13.8465909,0.329545455 C14.8693182,0.329545455 15.6704545,1.13068182 15.6704545,2.15340909 L15.6704545,13.8465909 C15.6704545,14.8693182 14.8693182,15.6704545 13.8465909,15.6704545 Z M2.15340909,1.35227273 C1.71022727,1.35227273 1.35227273,1.71022727 1.35227273,2.15340909 L1.35227273,13.8465909 C1.35227273,14.2897727 1.71022727,14.6477273 2.15340909,14.6477273 L13.8465909,14.6477273 C14.2897727,14.6477273 14.6477273,14.2897727 14.6477273,13.8465909 L14.6477273,2.15340909 C14.6477273,1.71022727 14.2897727,1.35227273 13.8465909,1.35227273 L2.15340909,1.35227273 Z" id="形状" fill-rule="nonzero"></path>
            </g>
        </g>
    </g>
</svg>