<?xml version="1.0" encoding="UTF-8"?>
<svg width="26px" height="26px" viewBox="0 0 26 26" version="1.1" xmlns="http://www.w3.org/2000/svg" xmlns:xlink="http://www.w3.org/1999/xlink">
    <!-- Generator: Sketch 55.2 (78181) - https://sketchapp.com -->
    <title>icon_camera</title>
    <desc>Created with Sketch.</desc>
    <g id="页面1" stroke="none" stroke-width="1" fill="none" fill-rule="evenodd">
        <g id="切图" transform="translate(-484.000000, -74.000000)" fill-rule="nonzero">
            <g id="icon_camera" transform="translate(484.000000, 74.000000)">
                <path d="M23.7466667,0 L2.25333333,0 C1.0088,0 0,1.0088 0,2.25333333 L0,6.41333333 C0,7.49146667 0.773066667,8.34946667 1.7836,8.57133333 C1.75933333,8.89026667 1.73333333,9.20746667 1.73333333,9.53333333 L1.73333333,14.7333333 C1.73333333,20.93 6.80333333,26 13,26 C19.1966667,26 24.2666667,20.93 24.2666667,14.7333333 L24.2666667,9.53333333 C24.2666667,9.2092 24.232,8.892 24.2008,8.5748 C25.22,8.35813333 26,7.49666667 26,6.41333333 L26,2.25333333 C26,1.0088 24.9912,0 23.7466667,0 Z M22.5333333,14.7333333 C22.5333333,19.9905333 18.2572,24.2666667 13,24.2666667 C7.7428,24.2666667 3.46666667,19.9905333 3.46666667,14.7333333 L3.46666667,9.53333333 C3.46666667,9.24906667 3.45453333,8.9596 3.484,8.66666667 L22.5125333,8.66666667 C22.5402667,8.9596 22.5333333,9.24906667 22.5333333,9.53333333 L22.5333333,14.7333333 Z M24.2666667,6.41333333 C24.2666667,6.69933333 24.0326667,6.93333333 23.7466667,6.93333333 L2.25333333,6.93333333 C1.96733333,6.93333333 1.73333333,6.69933333 1.73333333,6.41333333 L1.73333333,2.25333333 C1.73333333,1.96733333 1.96733333,1.73333333 2.25333333,1.73333333 L23.7466667,1.73333333 C24.0326667,1.73333333 24.2666667,1.96733333 24.2666667,2.25333333 L24.2666667,6.41333333 Z" id="Shape" fill="#FFFFFF"></path>
                <path d="M12.9722667,12.1333333 C15.366,12.1333333 17.3056,14.0729333 17.3056,16.4666667 C17.3056,18.8604 15.366,20.8 12.9722667,20.8 C10.5785333,20.8 8.63893333,18.8604 8.63893333,16.4666667 C8.63893333,14.0729333 10.5785333,12.1333333 12.9722667,12.1333333 Z M12.9722667,19.0666667 C14.4074667,19.0666667 15.5722667,17.9001333 15.5722667,16.4666667 C15.5722667,15.0332 14.4057333,13.8666667 12.9722667,13.8666667 C11.5388,13.8666667 10.3722667,15.0332 10.3722667,16.4666667 C10.3722667,17.9001333 11.5388,19.0666667 12.9722667,19.0666667 Z" id="形状结合" fill="#1890FF"></path>
                <polygon id="Path" fill="#1890FF" points="3.46666667 3.46666667 5.2 3.46666667 5.2 5.2 3.46666667 5.2"></polygon>
            </g>
        </g>
    </g>
</svg>